<svg width="50" height="50" viewBox="0 0 50 50" fill="none" xmlns="http://www.w3.org/2000/svg">
<circle cx="25" cy="25" r="25" fill="white"/>
<path d="M28.3785 16C28.144 16.412 27.9334 16.8382 27.742 17.2739C25.9232 17.004 24.0709 17.004 22.2473 17.2739C22.0606 16.8382 21.8452 16.412 21.6107 16C19.902 16.2889 18.2364 16.7956 16.6569 17.5106C13.5266 22.0995 12.6795 26.5698 13.1007 30.9787C14.9338 32.3189 16.9871 33.3417 19.1745 33.9953C19.6675 33.3417 20.103 32.6456 20.4764 31.9211C19.768 31.6606 19.0835 31.3339 18.4278 30.955C18.6001 30.8319 18.7676 30.704 18.9304 30.5809C22.7738 32.371 27.2251 32.371 31.0732 30.5809C31.236 30.7135 31.4035 30.8414 31.5758 30.955C30.9201 31.3386 30.2356 31.6606 29.5225 31.9258C29.8958 32.6504 30.3313 33.3465 30.8244 34C33.0116 33.3465 35.0649 32.3283 36.8982 30.9882C37.3959 25.8737 36.0462 21.4412 33.3323 17.5154C31.7577 16.8003 30.092 16.2936 28.3833 16.0095L28.3785 16ZM21.0124 28.2652C19.8302 28.2652 18.849 27.2044 18.849 25.8927C18.849 24.5809 19.7919 23.5154 21.0076 23.5154C22.2234 23.5154 23.1902 24.5856 23.171 25.8927C23.1519 27.1997 22.2186 28.2652 21.0124 28.2652ZM28.9864 28.2652C27.7994 28.2652 26.8278 27.2044 26.8278 25.8927C26.8278 24.5809 27.7707 23.5154 28.9864 23.5154C30.2021 23.5154 31.1642 24.5856 31.145 25.8927C31.1259 27.1997 30.1926 28.2652 28.9864 28.2652Z" fill="#550063"/>
</svg>
