<svg width="50" height="50" viewBox="0 0 50 50" fill="none" xmlns="http://www.w3.org/2000/svg">
<circle cx="25" cy="25" r="25" fill="white"/>
<path d="M25.513 14C24.868 14 24.28 14.34 23.106 15.017L16.675 18.723C15.5676 19.3486 14.6448 20.2552 13.9996 21.3513C13.3544 22.4473 13.0096 23.6942 13 24.966V25.202C13.0097 26.4722 13.3536 27.7175 13.9974 28.8125C14.6411 29.9076 15.5618 30.8138 16.667 31.44L20.69 33.763C23.044 35.123 24.221 35.805 25.514 35.805C26.806 35.806 27.984 35.127 30.339 33.767L34.59 31.314C35.767 30.634 36.354 30.294 36.677 29.735C37 29.175 37.001 28.495 37 27.135V24.505C37.0002 24.3225 36.9524 24.1432 36.8614 23.9851C36.7704 23.8269 36.6394 23.6955 36.4815 23.604C36.3236 23.5125 36.1445 23.4642 35.962 23.4638C35.7796 23.4635 35.6002 23.5111 35.442 23.602L26.714 28.626C26.127 28.963 25.834 29.133 25.513 29.133C25.19 29.133 24.897 28.965 24.309 28.627L18.405 25.234C18.108 25.063 17.959 24.978 17.84 24.963C17.7086 24.9462 17.5753 24.9731 17.4607 25.0396C17.3461 25.1061 17.2566 25.2085 17.206 25.331C17.161 25.442 17.161 25.613 17.163 25.956C17.165 26.208 17.163 26.334 17.188 26.45C17.241 26.709 17.377 26.943 17.575 27.117C17.664 27.194 17.773 27.257 17.991 27.383L24.306 31.033C24.895 31.373 25.19 31.543 25.513 31.543C25.837 31.543 26.13 31.373 26.719 31.034L34.459 26.565C34.661 26.449 34.761 26.393 34.836 26.435C34.911 26.479 34.911 26.595 34.911 26.827V28.02C34.911 28.36 34.912 28.53 34.831 28.669C34.751 28.809 34.604 28.893 34.309 29.063L27.927 32.748C26.749 33.428 26.16 33.768 25.514 33.768C24.868 33.768 24.278 33.428 23.102 32.746L17.132 29.294L17.089 29.269C16.4741 28.9089 15.9636 28.3951 15.6075 27.7779C15.2514 27.1607 15.062 26.4615 15.058 25.749V24.603C15.058 23.802 15.485 23.062 16.178 22.659C16.4791 22.4846 16.8209 22.3927 17.1689 22.3925C17.5168 22.3923 17.8587 22.4839 18.16 22.658L23.106 25.516C24.28 26.195 24.868 26.535 25.513 26.536C26.158 26.536 26.746 26.196 27.923 25.519L35.405 21.213C35.5712 21.1173 35.7092 20.9796 35.8052 20.8136C35.9011 20.6476 35.9517 20.4592 35.9517 20.2675C35.9517 20.0758 35.9011 19.8874 35.8052 19.7214C35.7092 19.5554 35.5712 19.4177 35.405 19.322L27.92 15.013C26.745 14.338 26.158 14 25.514 14H25.513Z" fill="#550063"/>
</svg>
