<svg width="50" height="50" viewBox="0 0 50 50" fill="none" xmlns="http://www.w3.org/2000/svg">
<circle cx="25" cy="25" r="25" fill="white"/>
<path d="M16.3 34C15.6675 34 15.126 33.7797 14.6756 33.3391C14.2252 32.8984 14 32.3687 14 31.75V18.25C14 17.6312 14.2252 17.1016 14.6756 16.6609C15.126 16.2203 15.6675 16 16.3 16H34.7C35.3325 16 35.874 16.2203 36.3244 16.6609C36.7748 17.1016 37 17.6312 37 18.25V31.75C37 32.3687 36.7748 32.8984 36.3244 33.3391C35.874 33.7797 35.3325 34 34.7 34H16.3ZM25.5 26.125L34.7 20.5V18.25L25.5 23.875L16.3 18.25V20.5L25.5 26.125Z" fill="#540063"/>
</svg>
