<svg width="127" height="128" viewBox="0 0 127 128" fill="none" xmlns="http://www.w3.org/2000/svg">
<path d="M52.3153 30.4972C52.3153 30.4972 59.1037 34.7497 63.0737 32.8671C67.0437 30.9844 80.5408 22.0422 86.7786 24.8794C92.3819 27.4182 95.9343 32.5357 92.632 51.9909C92.632 51.9909 92.2912 54.9886 95.5129 57.5202C103.906 64.136 109.308 70.2756 108.418 76.0892C107.62 81.3409 104.615 85.5699 99.4567 88.5006C92.8922 92.2271 83.2196 91.4945 81.3535 94.6583C79.4874 97.8222 73.9917 109.661 70.3766 112.471C65.381 116.36 57.3543 116.461 51.8587 108.087C46.4158 99.7951 45.4787 96.0464 44.85 95.4783C44.2213 94.9101 31.0736 95.4387 27.1527 92.8862C23.237 90.327 15.5268 84.7323 18.5801 76.2892C21.6333 67.8461 29.6793 61.7359 29.6793 61.7359C29.6793 61.7359 27.4525 43.6706 27.9469 39.4514C28.7684 32.4455 35.3996 20.1934 52.3153 30.4972Z" fill="url(#paint0_linear_1_167)"/>
<path d="M27.9629 39.4746C27.9629 39.4746 28.4445 59.0563 29.6953 61.7594L30.904 61.7188C30.1329 57.0217 29.4934 46.0853 27.9629 39.4746Z" fill="#FFF986"/>
<path d="M52.3153 30.4972C52.3153 30.4972 59.1037 34.7497 63.0737 32.8671C67.0437 30.9844 80.5408 22.0422 86.7786 24.8794C92.3819 27.4182 95.9343 32.5357 92.632 51.9909C92.632 51.9909 92.2912 54.9886 95.5129 57.5202C103.906 64.136 109.308 70.2756 108.418 76.0892C107.62 81.3409 104.615 85.57 99.4567 88.5006C92.8922 92.2271 83.2196 91.4945 81.3535 94.6583C79.4874 97.8222 73.9917 109.661 70.3766 112.471C65.381 116.36 57.3543 116.461 51.8587 108.087C46.4158 99.7951 45.4787 96.0464 44.85 95.4782C44.2213 94.9101 31.0736 95.4387 27.1527 92.8862C23.237 90.327 15.5268 84.7323 18.5801 76.2892C21.6333 67.8461 29.6793 61.7359 29.6793 61.7359C29.6793 61.7359 27.4525 43.6706 27.9469 39.4514C28.7684 32.4455 35.3996 20.1934 52.3153 30.4972Z" stroke="#FFB433" stroke-width="0.86" stroke-miterlimit="10"/>
<path d="M70.3968 34.428C72.1539 33.5856 75.6977 31.7653 77.4863 31.2952C74.6647 34.0299 69.1734 38.2657 66.3584 41.0055C65.5043 41.8358 64.5831 42.699 63.4161 42.9194C62.6269 43.0718 61.8141 42.9105 61.0347 42.7329C55.8242 41.5407 50.7882 39.5544 46.1646 36.862C44.5199 35.9025 42.8414 34.822 40.9388 34.6558C39.0362 34.4895 38.5474 35.1579 37.238 37.1782C36.3184 37.8738 35.5214 38.3261 35.3997 37.2724C35.2779 36.2187 35.9673 33.4259 36.6658 32.6341C37.9396 31.1983 39.6273 30.4607 41.2494 30.9809C46.698 32.7571 49.9324 34.3068 55.1405 36.9636C56.411 37.614 58.844 38.6842 60.2706 38.7163C62.0765 38.6921 66.8994 36.1047 70.3968 34.428Z" fill="#FFCE0C"/>
<path d="M60.4054 41.6244L61.3459 53.1694L48.7619 49.668L36.5214 34.3439C36.5214 34.3439 38.6636 31.0665 43.4316 33.0579C48.1995 35.0494 60.4054 41.6244 60.4054 41.6244Z" fill="#D6C7FF"/>
<path d="M36.5195 34.3429L48.7616 49.6693L48.9863 63.1337L38.1994 61.3954L35.1406 39.7905C35.1406 39.7905 34.7412 36.3713 36.5246 34.3362L36.5195 34.3429Z" fill="#A066FC"/>
<path d="M50.169 63.1756L38.1897 61.4089C38.1897 61.4089 24.4453 78.1752 23.9013 79.1918C23.364 80.2135 22.8944 81.8361 23.6683 82.7797C24.3431 83.605 41.8421 73.9694 42.0333 73.8843L50.174 63.169L50.169 63.1756Z" fill="#B180FD"/>
<path d="M54.0002 77.6101L47.664 89.2135L28.7903 86.592C28.7903 86.592 24.0567 85.0915 23.6717 82.7697L45.8486 72.2771L54.0053 77.6034L54.0002 77.6101Z" fill="#A566EE"/>
<path d="M61.136 88.8051L62.262 107.995C62.262 107.995 59.0555 107.733 56.9888 104.845C54.4891 101.339 47.6515 89.2111 47.6515 89.2111L53.9873 77.6084L61.136 88.8051Z" fill="#8836E5"/>
<path d="M62.665 107.935C62.665 107.935 65.0247 107.819 67.7453 101.577C70.4658 95.3345 75.6553 86.1168 75.6553 86.1168L69.0342 75.9473L61.189 89.5158L62.6701 107.928L62.665 107.935Z" fill="#C684E4"/>
<path d="M82.1313 70.7142L100.48 76.1183C100.48 76.1183 100.145 78.3501 97.3528 78.9233C94.5603 79.4965 75.6621 86.118 75.6621 86.118L69.0423 75.9505L82.138 70.7193L82.1313 70.7142Z" fill="#A564FA"/>
<path d="M84.4113 57.2935L74.1336 60.376L80.4983 70.3777L100.488 76.1066C100.488 76.1066 101.994 73.3317 99.9362 71.1366C97.8783 68.9415 84.4164 57.2868 84.4164 57.2868L84.4113 57.2935Z" fill="#B2B9E7"/>
<path d="M84.3934 30.7454L72.2232 48.3301L72.4573 60.655L84.4161 57.2892L86.4641 36.5803C86.5974 35.2057 86.4254 33.8177 85.8767 32.5514C85.5256 31.7431 85.0403 31.0004 84.3868 30.7403L84.3934 30.7454Z" fill="#BD97F4"/>
<path d="M84.4012 30.7526L71.5 49.475L61.357 53.1621L60.4161 41.6119L78.9437 30.8061C80.9368 29.7649 83.3095 29.881 84.4129 30.751L84.4012 30.7526Z" fill="#DAE1F9"/>
<path d="M36.5254 34.3428L48.7646 49.6648" stroke="#FFF9D0" stroke-width="0.65" stroke-linecap="round" stroke-linejoin="round"/>
<path d="M84.4009 30.7461L74.0574 45.7553" stroke="#FFF9D0" stroke-width="0.65" stroke-linecap="round" stroke-linejoin="round"/>
<path d="M82.1351 70.7098L100.48 76.1127" stroke="#FFF9D0" stroke-width="0.65" stroke-linecap="round" stroke-linejoin="round"/>
<path d="M61.1328 88.8027L62.6618 107.935" stroke="#FFF9D0" stroke-width="0.65" stroke-linecap="round" stroke-linejoin="round"/>
<path d="M40.2749 74.8366L23.6667 82.7815" stroke="#FFF9D0" stroke-width="0.65" stroke-linecap="round" stroke-linejoin="round"/>
<path d="M60.3948 41.6191L78.9184 30.8152C80.6034 29.8329 82.7221 29.7434 84.3863 30.76C85.2872 31.316 86.0916 32.1777 86.4375 33.5304C87.4017 37.3951 84.4151 57.3047 84.4151 57.3047C84.4151 57.3047 99.06 69.1106 100.592 72.0932C100.592 72.0932 102.253 76.4094 97.7911 78.7159C93.3297 81.0224 75.6636 86.1245 75.6636 86.1245L65.7819 105.424C65.2853 106.392 64.508 107.218 63.5124 107.655C62.1414 108.267 60.0979 108.34 57.7648 105.733C53.4501 100.926 47.6714 89.2001 47.6714 89.2001L30.2001 86.8772C27.9766 86.5802 25.8805 85.5371 24.415 83.8187C23.4347 82.6636 22.7988 81.2776 23.505 79.8692C25.1895 76.5022 38.1903 61.3857 38.1903 61.3857L35.1318 39.7788C34.8582 37.8487 35.3013 35.8476 36.5159 34.324C37.5144 33.0561 39.093 32.0341 41.5301 32.5061C46.9107 33.5443 60.405 41.6058 60.405 41.6058L60.3948 41.6191Z" stroke="#EAA034" stroke-width="0.65" stroke-linecap="round" stroke-linejoin="round"/>
<path d="M95.5812 60.9946C95.2921 60.6983 94.7483 60.5015 94.279 60.5517C93.9917 60.5838 93.6506 60.6589 93.5312 60.9257C93.4204 61.1674 93.5463 61.4435 93.6893 61.6696C94.3189 62.6498 95.3416 63.3627 96.477 63.6246C96.6119 63.6545 96.7518 63.6778 96.8758 63.6255C97.1959 63.4815 97.1153 63.0082 96.9599 62.6882C96.5902 61.9186 96.0824 61.4541 95.5762 61.0013L95.5812 60.9946Z" fill="#EFFFFE"/>
<path d="M103.054 68.4645C102.547 67.8324 101.973 67.1795 101.098 66.8651C100.804 66.7547 100.434 66.7022 100.213 66.9226C100.06 67.0684 100.026 67.306 100.012 67.5169C99.9328 69.2067 100.976 70.7476 102.124 71.9998C102.409 72.3145 102.718 72.6261 103.104 72.7961C103.489 72.9662 103.983 72.9664 104.31 72.6901C104.646 72.4006 104.626 72.1105 104.59 71.6611C104.5 70.5375 103.79 69.4425 103.049 68.4711L103.054 68.4645Z" fill="#EFFFFE"/>
<path d="M43.261 29.1252C43.261 29.1252 45.9316 29.2075 49.0276 31.3786C49.8067 31.9147 49.6048 32.9513 48.3373 32.3663C48.3373 32.3663 45.6765 30.9203 43.2524 30.5424C41.9669 30.4499 41.611 29.1108 43.2677 29.1303L43.261 29.1252Z" fill="#FFF9D0"/>
<path d="M61.8229 50.9568L72.3793 44.6571C73.3393 44.0876 74.5383 44.0184 75.4774 44.5932C75.9885 44.9021 76.4344 45.3928 76.6139 46.164C77.1318 48.3665 75.3166 59.7775 75.3166 59.7775C75.3166 59.7775 83.5305 66.435 84.3804 68.1333C84.3804 68.1333 85.2947 70.5882 82.7534 71.935C80.212 73.2818 70.181 76.3143 70.181 76.3143L64.2204 87.8802C64.2204 87.8802 62.324 90.3668 59.9168 87.6496C57.5096 84.9324 54.3109 78.2618 54.3109 78.2618L44.4375 77.0479C43.1789 76.8919 42.0012 76.3128 41.1812 75.3337C40.6367 74.6827 40.2821 73.8929 40.6921 73.0796C41.667 71.1394 49.1291 62.4168 49.1291 62.4168L47.5369 50.0826C47.3973 48.9834 47.662 47.8367 48.3547 46.956C48.9308 46.2282 49.8277 45.6312 51.2071 45.8907C54.2442 46.4445 61.8311 50.9737 61.8311 50.9737L61.8229 50.9568Z" fill="url(#paint1_linear_1_167)" stroke="#F7F6F5" stroke-width="0.65" stroke-linecap="round" stroke-linejoin="round"/>
<defs>
<linearGradient id="paint0_linear_1_167" x1="85.7442" y1="29.9698" x2="43.4878" y2="95.6687" gradientUnits="userSpaceOnUse">
<stop stop-color="#F9FE00"/>
<stop offset="0.39" stop-color="#FBE113"/>
<stop offset="0.91" stop-color="#FFB433"/>
</linearGradient>
<linearGradient id="paint1_linear_1_167" x1="55.5669" y1="75.1644" x2="79.2067" y2="39.2656" gradientUnits="userSpaceOnUse">
<stop offset="0.04" stop-color="#D8CBFB"/>
<stop offset="0.18" stop-color="#DCD0FB"/>
<stop offset="0.35" stop-color="#E9E0FD"/>
<stop offset="0.47" stop-color="#F6F0FF"/>
</linearGradient>
</defs>
</svg>
