<svg width="50" height="50" viewBox="0 0 50 50" fill="none" xmlns="http://www.w3.org/2000/svg">
<circle cx="25" cy="25" r="25" fill="white"/>
<path d="M32.8856 32.9018L27.1972 24.1965L32.8101 18.1839C33.1815 17.7763 32.9604 17.13 32.4122 17.0207C32.1639 16.9712 31.907 17.0512 31.7343 17.2318L26.3876 22.9586L22.7084 17.3283C22.575 17.1239 22.3437 17.0001 22.095 17H17.7334C17.1738 16.9997 16.8237 17.5895 17.1033 18.0615C17.1087 18.0706 17.1142 18.0795 17.12 18.0884L22.8083 26.7927L17.1954 32.8097C16.8141 33.2086 17.0192 33.8598 17.5646 33.982C17.8238 34.04 18.0948 33.9556 18.2713 33.7618L23.618 28.0351L27.2972 33.6654C27.4316 33.8681 27.6628 33.9901 27.9106 33.9893H32.2722C32.8318 33.9891 33.1814 33.3991 32.9014 32.9272C32.8963 32.9186 32.891 32.9101 32.8856 32.9018ZM28.3095 32.5735L19.0573 18.4158H21.6925L30.9483 32.5735H28.3095Z" fill="#550063"/>
</svg>
